<?xml version="1.0" standalone="no"?>
<!DOCTYPE svg PUBLIC "-//W3C//DTD SVG 20010904//EN"
 "http://www.w3.org/TR/2001/REC-SVG-20010904/DTD/svg10.dtd">
<svg version="1.0" xmlns="http://www.w3.org/2000/svg"
 width="2048.000000pt" height="2048.000000pt" viewBox="0 0 2048.000000 2048.000000"
 preserveAspectRatio="xMidYMid meet">

<g transform="translate(0.000000,2048.000000) scale(0.100000,-0.100000)"
fill="#000000" stroke="none">
<path d="M10160 18709 c-1212 -97 -2369 -557 -3346 -1330 -244 -193 -522 -445
-705 -641 -68 -73 -144 -153 -168 -178 -24 -25 -98 -110 -165 -190 -1026
-1222 -1671 -2810 -1830 -4506 -31 -320 -39 -553 -33 -944 7 -518 36 -844 118
-1330 321 -1911 1266 -3615 2639 -4761 962 -803 2102 -1300 3290 -1434 474
-53 1009 -44 1485 26 146 21 474 85 483 93 2 3 0 810 -6 1793 -10 1816 -11
1855 -45 1889 -4 4 -7 15 -7 25 0 10 -6 24 -14 31 -7 8 -17 24 -21 37 -4 12
-20 35 -36 50 -16 16 -29 32 -29 36 0 4 -10 16 -22 27 -13 11 -34 29 -48 41
-14 12 -41 33 -60 47 -19 13 -37 27 -40 30 -3 3 -20 12 -37 19 -18 8 -33 17
-33 20 0 10 -58 37 -98 45 -17 4 -32 11 -32 16 0 4 -24 13 -52 18 -29 6 -73
15 -98 21 -25 6 -168 10 -318 11 -300 0 -332 5 -332 55 0 13 5 27 10 30 6 4
762 3 1681 -1 1561 -7 1671 -8 1679 -24 6 -12 5 -23 -5 -36 -13 -18 -43 -19
-751 -24 -577 -4 -738 -8 -742 -17 -2 -7 -13 -13 -24 -13 -11 0 -32 -6 -46
-13 -15 -8 -58 -29 -96 -48 -133 -67 -257 -192 -297 -302 -18 -48 -18 -108 -9
-1511 5 -804 10 -1635 10 -1848 l0 -387 93 25 c1318 350 2514 1150 3425 2291
1509 1892 2098 4527 1566 7011 -263 1231 -784 2365 -1523 3314 l-76 98 -730
-1 c-401 0 -768 -4 -815 -9 -152 -16 -190 -22 -190 -30 0 -4 -19 -10 -41 -14
-23 -4 -60 -15 -83 -25 -22 -10 -62 -28 -89 -39 -136 -59 -311 -217 -420 -377
-37 -55 -107 -156 -155 -225 -49 -69 -127 -181 -175 -250 -48 -69 -108 -152
-133 -185 -70 -93 -184 -254 -184 -261 0 -7 -62 -96 -900 -1294 -140 -201
-325 -466 -410 -588 -739 -1061 -1316 -1881 -1369 -1944 l-56 -67 -18 47 c-11
26 -20 52 -21 57 -2 6 -13 32 -24 58 -12 27 -25 61 -29 75 -3 15 -12 36 -19
47 -7 11 -13 23 -14 27 -1 14 -14 51 -39 111 -6 15 -15 37 -20 50 -4 12 -13
33 -19 47 -9 22 -22 56 -27 70 -10 29 -19 50 -33 75 -9 17 -15 31 -14 32 2 3
-7 31 -20 63 -13 30 -28 67 -39 98 -9 22 -21 53 -38 95 -12 30 -21 57 -19 60
1 1 -5 13 -12 27 -8 14 -15 27 -15 30 -2 13 -20 60 -38 100 -11 25 -21 47 -22
50 -11 47 -123 344 -160 425 -12 28 -28 67 -36 88 -7 20 -16 37 -20 37 -4 0
-11 15 -14 33 -4 17 -11 37 -15 42 -5 6 -29 69 -53 140 -25 72 -85 234 -135
360 -233 594 -325 826 -356 900 -29 69 -53 129 -120 305 -17 44 -36 51 -36 12
0 -17 -40 -228 -89 -469 -132 -645 -1209 -5871 -1221 -5922 -23 -95 -65 -155
-145 -207 -24 -15 -48 -19 -129 -19 -71 0 -101 4 -103 13 -3 6 -9 12 -15 12
-22 0 -88 81 -99 123 -20 71 -14 131 45 407 143 666 275 1310 812 3949 l574
2824 -27 36 c-48 65 -247 256 -312 300 -106 72 -220 117 -406 159 -69 16 -248
42 -290 42 -3 0 -5 5 -5 10 0 6 34 10 83 10 45 0 97 4 115 9 48 14 1329 23
1487 11 71 -6 166 -20 210 -31 94 -24 217 -83 294 -141 60 -45 211 -194 211
-208 0 -5 6 -13 13 -17 17 -12 37 -49 37 -73 0 -11 5 -20 10 -20 6 0 10 -9 10
-20 0 -11 5 -20 10 -20 6 0 10 -8 10 -17 0 -24 43 -157 52 -161 5 -2 8 -14 8
-28 0 -13 11 -47 24 -76 14 -29 38 -93 54 -143 52 -155 83 -237 108 -287 8
-14 14 -38 14 -52 0 -14 5 -26 10 -26 6 0 10 -8 10 -18 0 -9 9 -34 20 -55 11
-20 20 -44 20 -52 0 -8 4 -15 10 -15 5 0 12 -22 16 -50 4 -27 13 -55 20 -61 8
-6 14 -22 14 -35 0 -13 4 -24 8 -24 5 0 14 -19 21 -42 7 -24 16 -53 21 -65 6
-13 14 -33 20 -45 5 -13 16 -46 24 -74 7 -28 23 -68 34 -90 10 -21 22 -56 26
-76 4 -21 11 -38 16 -38 6 0 10 -7 10 -15 0 -9 9 -33 20 -55 11 -22 20 -51 20
-65 0 -14 5 -25 10 -25 6 0 10 -13 10 -29 0 -16 6 -31 14 -34 7 -3 16 -24 19
-48 3 -23 10 -45 15 -48 5 -3 12 -17 16 -31 4 -14 11 -34 15 -45 5 -11 18 -42
29 -70 44 -108 62 -158 62 -171 0 -8 5 -14 10 -14 6 0 10 -13 10 -30 0 -16 5
-30 10 -30 6 0 10 -13 10 -29 0 -16 7 -34 15 -41 8 -7 15 -21 15 -31 0 -10 5
-21 10 -24 6 -3 10 -19 10 -36 0 -16 5 -29 10 -29 6 0 10 -8 10 -18 0 -10 9
-35 20 -57 11 -22 20 -50 20 -62 0 -13 4 -23 8 -23 5 0 15 -22 22 -50 7 -27
17 -50 22 -50 4 0 8 -16 8 -35 0 -19 5 -35 10 -35 6 0 10 -9 10 -19 0 -11 6
-26 13 -33 7 -7 18 -29 24 -48 17 -53 37 -104 43 -110 3 -3 12 -24 20 -48 13
-42 14 -42 32 -23 10 11 18 23 18 27 0 3 10 19 23 34 12 15 29 37 37 50 8 12
20 28 26 34 6 7 15 22 18 34 4 12 12 22 17 22 5 0 13 8 16 18 4 9 17 28 30 42
13 14 26 35 29 48 4 12 10 22 14 22 5 0 19 17 31 38 13 20 28 42 34 49 25 30
31 39 38 56 3 9 11 17 16 17 5 0 13 10 17 22 3 12 12 28 19 35 22 21 105 150
105 162 0 6 7 11 15 11 8 0 15 7 15 15 0 8 5 15 10 15 6 0 10 6 10 13 0 8 9
22 20 32 11 10 20 22 20 27 0 9 36 62 58 86 6 7 12 16 12 20 0 4 14 23 30 42
17 19 33 44 36 55 4 10 17 28 30 38 13 10 24 25 24 32 0 8 14 29 30 47 17 18
33 43 36 56 4 12 10 22 15 22 5 0 13 8 16 18 4 9 16 26 27 37 12 12 30 38 41
59 11 21 25 41 32 43 7 3 13 14 13 24 0 10 14 31 31 46 18 16 38 43 45 61 8
17 18 32 22 32 5 0 16 17 25 38 9 20 30 53 47 72 16 19 30 41 30 48 0 6 5 12
10 12 6 0 10 5 10 10 0 12 41 73 53 78 4 2 7 10 7 17 0 8 6 18 13 22 16 11 57
69 57 83 0 5 5 10 10 10 6 0 10 7 10 15 0 7 6 18 14 22 7 4 23 27 35 51 12 24
28 45 36 49 8 3 15 14 15 24 0 10 7 19 15 19 8 0 15 6 15 13 0 8 9 22 20 32
11 10 20 26 20 36 0 9 3 19 8 21 4 2 23 23 42 48 19 25 37 47 40 50 16 13 213
297 221 317 4 12 17 31 28 42 10 10 22 28 25 38 4 11 20 35 36 53 17 19 30 37
30 42 0 5 11 21 25 36 14 15 25 31 25 37 0 5 11 20 25 33 13 13 30 36 37 52 7
17 16 30 19 30 4 0 19 20 33 45 15 25 31 45 36 45 6 0 10 6 10 14 0 8 14 30
30 48 17 18 30 39 30 47 0 8 16 29 35 48 19 19 35 40 35 48 0 8 4 15 9 15 5 0
14 14 21 30 7 17 16 30 21 30 5 0 9 7 9 15 0 8 5 15 10 15 6 0 10 6 10 14 0 8
3 16 8 18 15 6 72 92 72 109 0 15 16 36 83 109 13 14 26 33 30 43 3 9 11 17
17 17 5 0 10 6 10 13 0 8 9 22 20 32 11 10 20 24 20 32 0 7 5 13 10 13 6 0 10
5 10 10 0 12 41 73 53 78 4 2 7 9 7 16 0 6 8 19 18 28 25 24 38 41 55 74 39
73 33 72 274 74 120 1 259 5 308 9 50 4 412 8 805 10 393 1 716 4 717 5 7 7
-230 270 -397 440 -376 383 -714 662 -1140 941 -882 579 -1859 914 -2904 995
-151 12 -684 11 -836 -1z m3870 -2872 c68 -21 170 -74 170 -89 0 -5 5 -8 10
-8 21 0 95 -91 131 -160 34 -64 58 -165 59 -240 0 -46 -95 -541 -325 -1695
-342 -1714 -371 -1860 -405 -2045 -11 -63 -25 -129 -30 -145 -5 -17 -14 -57
-19 -90 -6 -33 -21 -114 -35 -180 -14 -66 -25 -137 -26 -157 0 -21 -4 -38 -8
-38 -4 0 -18 -64 -31 -142 -12 -79 -28 -165 -36 -193 -7 -27 -32 -149 -54
-270 -23 -121 -49 -247 -56 -280 -8 -33 -19 -93 -25 -134 -6 -40 -12 -77 -15
-81 -8 -13 -55 -258 -55 -288 0 -17 -4 -33 -9 -36 -4 -3 -11 -27 -14 -53 -3
-27 -13 -79 -21 -118 -9 -38 -16 -85 -16 -102 0 -18 -4 -33 -10 -33 -5 0 -10
-17 -10 -37 0 -21 -11 -90 -24 -153 -39 -189 -49 -302 -37 -423 10 -100 54
-268 73 -275 4 -2 8 -12 8 -22 0 -24 21 -70 32 -70 4 0 8 -7 8 -15 0 -8 5 -15
10 -15 6 0 10 -4 10 -10 0 -14 69 -89 132 -145 44 -38 180 -91 258 -100 30 -4
71 -12 90 -18 24 -7 190 -11 510 -12 468 0 475 0 475 -20 0 -18 -9 -21 -80
-26 -44 -4 -584 -10 -1200 -13 -1177 -7 -2216 -21 -2620 -35 -156 -5 -244 -5
-252 2 -15 11 -17 43 -3 52 5 3 139 12 297 21 266 13 294 17 363 41 41 15 77
30 80 34 3 4 27 13 53 19 26 7 47 16 47 21 0 5 7 9 15 9 8 0 15 5 15 10 0 6 7
10 15 10 8 0 15 4 15 9 0 5 8 12 19 16 38 12 139 110 194 188 130 184 205 380
258 667 10 58 23 125 29 150 6 25 19 95 31 155 26 137 36 188 49 245 13 57 28
146 39 230 5 36 13 77 19 92 6 15 14 61 18 102 4 42 11 76 15 76 5 0 9 18 9
39 0 22 5 52 11 68 6 15 15 51 19 78 5 28 15 81 24 120 9 38 16 84 16 102 0
17 5 35 10 38 6 3 10 18 10 33 0 15 7 59 15 97 9 39 20 95 25 125 12 74 28
155 40 210 6 25 15 76 20 114 6 39 14 72 19 75 4 3 11 29 14 56 3 28 11 70 17
95 6 25 14 69 17 98 3 28 9 52 13 52 5 0 10 26 13 58 3 31 12 91 21 132 9 41
16 87 16 103 0 15 4 27 9 27 5 0 11 27 13 61 2 33 9 64 15 67 6 4 13 41 17 82
4 41 14 94 22 118 8 23 14 58 14 77 0 19 4 35 9 35 4 0 11 34 15 76 4 42 14
95 21 118 8 23 15 60 15 84 0 23 5 42 10 42 6 0 10 12 10 28 0 15 12 81 26
147 22 109 42 211 76 408 6 37 15 67 20 67 4 0 8 19 8 43 1 23 5 62 11 87 5
25 14 77 21 115 6 39 15 72 19 75 5 3 11 38 15 78 4 40 11 72 15 72 5 0 9 20
9 44 0 25 5 57 11 73 6 15 14 48 19 72 6 36 6 41 -5 30 -8 -8 -141 -198 -297
-424 -156 -225 -325 -468 -374 -540 -50 -71 -286 -411 -524 -755 -238 -344
-474 -683 -523 -755 -50 -71 -244 -350 -430 -620 -187 -269 -442 -636 -566
-815 -126 -181 -225 -334 -224 -345 0 -11 17 -58 37 -105 64 -154 88 -325 66
-482 -42 -306 -203 -568 -449 -732 -67 -45 -208 -116 -230 -116 -6 0 -11 -4
-11 -8 0 -5 38 -16 84 -25 247 -49 537 -189 736 -356 249 -209 447 -500 550
-810 215 -645 57 -1354 -406 -1826 -240 -244 -549 -410 -879 -471 -139 -26
-470 -26 -600 0 -640 127 -1150 600 -1339 1242 -98 332 -92 733 15 1073 38
117 129 308 199 416 242 369 621 635 1035 726 50 11 180 36 290 54 279 48 367
76 500 162 310 201 475 577 411 939 -15 90 -62 234 -75 234 -7 0 -40 -46 -165
-225 -34 -49 -100 -144 -146 -210 -47 -66 -138 -199 -204 -295 -65 -96 -148
-214 -183 -261 -66 -91 -174 -199 -199 -199 -8 0 -14 -4 -14 -10 0 -5 -19 -15
-42 -22 -24 -6 -46 -17 -50 -22 -4 -7 -53 -11 -120 -11 -98 0 -124 4 -196 29
-72 24 -93 37 -153 94 -264 248 -357 650 -235 1010 175 514 725 805 1223 647
l71 -22 21 28 c12 15 21 32 21 36 0 5 9 15 20 23 11 8 20 20 20 27 0 7 3 13 8
13 4 0 13 13 20 30 7 16 24 39 37 52 14 13 25 29 25 36 0 6 3 12 8 12 4 0 18
18 32 40 14 22 28 40 31 40 4 0 9 10 13 23 3 12 16 33 29 47 12 14 31 39 42
56 37 58 73 109 94 133 11 13 21 30 21 38 0 7 7 16 15 19 8 4 15 12 15 20 0 8
4 14 8 14 5 0 15 12 23 28 8 15 24 38 37 52 12 14 25 35 28 48 4 12 10 22 14
22 5 0 18 16 30 35 12 20 27 41 33 48 7 6 18 24 26 39 8 15 22 37 33 47 10 11
18 24 18 28 0 4 15 25 33 45 18 21 40 50 48 65 8 16 22 34 32 41 9 7 17 19 17
25 0 7 13 28 30 47 16 19 29 41 30 49 0 7 10 23 23 35 13 11 54 66 91 121 38
55 81 118 97 140 16 22 59 85 96 140 37 55 70 102 73 105 8 7 83 114 192 275
52 77 119 174 149 216 56 79 173 246 504 724 42 61 118 170 168 242 51 73 117
169 147 213 30 44 107 155 170 245 63 90 171 245 240 345 69 99 148 213 175
253 28 39 86 124 130 187 82 120 314 452 571 818 82 117 154 220 159 229 6 9
17 24 25 32 8 9 26 30 40 46 60 72 179 143 275 164 33 7 65 15 70 17 20 8 191
-6 235 -19z m-7664 -7663 c2 -167 25 -232 111 -316 106 -103 253 -133 375 -76
93 43 147 86 201 160 29 40 56 68 65 66 90 -18 -55 -209 -217 -287 -73 -35
-80 -36 -186 -36 -99 0 -116 3 -168 27 -31 15 -82 51 -113 80 -100 95 -164
273 -147 408 7 56 19 72 52 68 26 -3 26 -4 27 -94z"/>
<path d="M13981 15268 c-78 -38 -146 -153 -195 -328 -8 -30 -60 -282 -115
-560 -55 -278 -306 -1538 -556 -2800 -495 -2490 -489 -2456 -510 -2610 -44
-319 21 -662 155 -812 60 -67 139 -122 218 -149 48 -17 90 -22 262 -26 198 -5
204 -4 180 13 -117 82 -184 153 -243 256 -68 119 -117 333 -117 516 0 141 -6
110 245 1367 362 1809 915 4636 931 4759 19 138 11 216 -31 302 -45 92 -129
119 -224 72z"/>
<path d="M8950 9960 c-354 -75 -631 -362 -705 -729 -25 -119 -18 -319 13 -377
74 -142 215 -135 404 20 52 44 108 116 313 407 138 194 271 386 297 426 26 40
51 73 56 73 5 0 20 21 33 47 13 26 36 59 52 75 l27 27 -52 16 c-141 40 -296
46 -438 15z"/>
<path d="M8995 8043 c-182 -23 -345 -72 -510 -153 -469 -230 -799 -666 -907
-1202 -19 -96 -23 -144 -23 -323 0 -179 4 -227 23 -323 33 -163 73 -279 152
-437 170 -343 461 -619 801 -759 192 -79 377 -117 578 -118 106 0 135 3 182
21 159 61 270 192 321 378 19 74 21 108 25 603 2 289 0 820 -5 1180 -9 620
-10 659 -30 733 -30 108 -76 191 -147 263 -116 118 -266 162 -460 137z"/>
<path d="M10333 7290 c-156 -70 -263 -437 -263 -906 0 -271 48 -528 133 -706
120 -254 253 -264 371 -29 178 352 174 1106 -7 1466 -80 160 -150 213 -234
175z"/>
<path d="M11565 7637 c135 -73 241 -164 316 -270 l48 -69 25 50 c53 105 154
204 290 286 l60 36 -400 0 -399 0 60 -33z"/>
</g>
</svg>
